<svg xmlns="http://www.w3.org/2000/svg" xmlns:svg="http://www.w3.org/2000/svg" xmlns:xlink="http://www.w3.org/1999/xlink" id="svg8" width="615.745" height="323.614" version="1.1" viewBox="0 0 224.488 117.983"><defs id="defs2"><linearGradient id="linearGradient1299"><stop style="stop-color:#d1f8de;stop-opacity:.7421875" id="stop1295" offset="0"/><stop style="stop-color:#e8fff1;stop-opacity:.26171875" id="stop1297" offset="1"/></linearGradient><linearGradient id="linearGradient5057"><stop id="stop5053" offset="0" style="stop-color:#3c3c3c;stop-opacity:1"/><stop id="stop5055" offset="1" style="stop-color:#282728;stop-opacity:.6574803"/></linearGradient><linearGradient id="linearGradient4713"><stop style="stop-color:#3de256;stop-opacity:1" id="stop4709" offset="0"/><stop style="stop-color:#2fbeba;stop-opacity:1" id="stop4711" offset="1"/></linearGradient><linearGradient id="linearGradient4707" x1="89.966" x2="108.002" y1="19.458" y2="39.934" gradientTransform="translate(38.574145,1.3181723)" gradientUnits="userSpaceOnUse" xlink:href="#linearGradient4713"/><linearGradient id="linearGradient5059" x1="92.227" x2="140.261" y1="48.94" y2="94.022" gradientUnits="userSpaceOnUse" xlink:href="#linearGradient5057"/><clipPath id="clipPath922" clipPathUnits="userSpaceOnUse"><rect id="rect924" width="12.7" height="12.171" x="0" y="284.565" ry="1.064" style="fill:none;fill-opacity:1;stroke:#23d829;stroke-width:.044;stroke-miterlimit:4;stroke-dasharray:none;stroke-opacity:.72265625"/></clipPath><linearGradient id="linearGradient1014"><stop style="stop-color:#232629;stop-opacity:1" id="stop1010" offset="0"/><stop style="stop-color:#282728;stop-opacity:.6574803" id="stop1012" offset="1"/></linearGradient><linearGradient id="linearGradient974"><stop id="stop970" offset="0" style="stop-color:#232629;stop-opacity:1"/><stop id="stop972" offset="1" style="stop-color:#232629;stop-opacity:0"/></linearGradient><linearGradient id="linearGradient847"><stop id="stop843" offset="0" style="stop-color:#c1fe6f;stop-opacity:1"/><stop id="stop845" offset="1" style="stop-color:#60fe6f;stop-opacity:1"/></linearGradient><linearGradient id="linearGradient4759"><stop id="stop4755" offset="0" style="stop-color:#2eec71;stop-opacity:1"/><stop id="stop4757" offset="1" style="stop-color:#1cdc9a;stop-opacity:1"/></linearGradient><clipPath id="clipPath922-0" clipPathUnits="userSpaceOnUse"><rect id="rect924-6" width="12.7" height="12.171" x="0" y="284.565" ry="1.064" style="fill:none;fill-opacity:1;stroke:#23d829;stroke-width:.044;stroke-miterlimit:4;stroke-dasharray:none;stroke-opacity:.72265625"/></clipPath><linearGradient id="linearGradient1293" x1="10.783" x2="177.857" y1="217.789" y2="339.115" gradientUnits="userSpaceOnUse" xlink:href="#linearGradient1299"/><linearGradient id="linearGradient910" x1="12.7" x2="12.7" y1="284.3" y2="297" gradientTransform="matrix(1.2056978,0,0,1.2057734,77.261682,-114.9911)" gradientUnits="userSpaceOnUse" xlink:href="#linearGradient908"/><linearGradient id="linearGradient908"><stop style="stop-color:#6e7678;stop-opacity:1" id="stop904" offset="0"/><stop style="stop-color:#2e3235;stop-opacity:1" id="stop906" offset="1"/></linearGradient><linearGradient id="linearGradient883" x1="0" x2="12.7" y1="284.829" y2="297" gradientTransform="matrix(1.2056977,0,0,1.2253541,77.233199,-120.6825)" gradientUnits="userSpaceOnUse" xlink:href="#linearGradient881"/><linearGradient id="linearGradient881"><stop style="stop-color:#4d595a;stop-opacity:1" id="stop877" offset="0"/><stop style="stop-color:#313537;stop-opacity:1" id="stop879" offset="1"/></linearGradient><linearGradient id="linearGradient1028-3" x1="1.323" x2="13.412" y1="286.152" y2="297" gradientTransform="matrix(1.0703139,0,0,1.0747072,78.159839,-76.824538)" gradientUnits="userSpaceOnUse" xlink:href="#linearGradient974"/><linearGradient id="linearGradient953-5" x1="85.23" x2="113.087" y1="28.293" y2="35.516" gradientTransform="matrix(0.34597512,0.06144722,-0.06655638,0.31941658,-25.119909,272.6237)" gradientUnits="userSpaceOnUse" xlink:href="#linearGradient4759"/><linearGradient id="linearGradient955-6" x1="39.631" x2="56.496" y1="196.652" y2="208.575" gradientTransform="matrix(0.15666471,0,0,0.15666471,-5.1504396,254.55225)" gradientUnits="userSpaceOnUse" xlink:href="#linearGradient847"/><linearGradient id="linearGradient984-1" x1="2.117" x2="8.202" y1="290.385" y2="297" gradientTransform="matrix(1.0703139,0,0,1.0747072,77.311532,-76.827079)" gradientUnits="userSpaceOnUse" xlink:href="#linearGradient974"/><linearGradient id="linearGradient976-2" x1="85.003" x2="90.152" y1="24.073" y2="29.207" gradientTransform="matrix(0.28077666,0,0,0.27661774,56.41904,228.63448)" gradientUnits="userSpaceOnUse" xlink:href="#linearGradient1014"/></defs><metadata id="metadata5"/><g id="layer1" transform="translate(46.619838,-221.12875)"><rect style="opacity:1;fill:none;fill-opacity:.26171875;stroke:none;stroke-width:.04547203;stroke-miterlimit:4;stroke-dasharray:none;stroke-opacity:.72265625" id="rect1328" width="226.04" height="120.311" x="-47.395" y="220.209"/><path style="fill:url(#linearGradient1293);fill-opacity:1;stroke:none;stroke-width:.36458001px;stroke-linecap:butt;stroke-linejoin:miter;stroke-opacity:1" id="path1285" d="m -37.461738,329.95377 9.160997,9.16099 H 177.85728 l 0.26073,-84.45811 -9.40747,-9.40747 v 84.70459 z"/><rect style="opacity:1;fill:#fffefa;fill-opacity:1;stroke:#23d829;stroke-width:.08719815;stroke-miterlimit:4;stroke-dasharray:none;stroke-opacity:.72265625" id="rect1254" width="206.172" height="84.705" x="-37.462" y="245.249" ry="0"/><text style="font-style:normal;font-weight:400;font-size:20.29482841px;line-height:1.25;font-family:sans-serif;letter-spacing:0;word-spacing:0;fill:#4d4d4d;fill-opacity:1;stroke:none;stroke-width:.50737071" id="text1204" x="30.433" y="289.264" xml:space="preserve"><tspan id="tspan1202" x="30.433" y="289.264" style="font-style:normal;font-variant:normal;font-weight:400;font-stretch:normal;font-family:'Noto Sans';-inkscape-font-specification:'Noto Sans';fill:#4d4d4d;fill-opacity:1;stroke-width:.50737071">Qv2ray</tspan></text><text style="font-style:normal;font-weight:400;font-size:20.68452454px;line-height:1.25;font-family:sans-serif;letter-spacing:0;word-spacing:0;fill:#666;fill-opacity:1;stroke:none;stroke-width:.51711321" id="text1204-7" x="16.455" y="304.127" xml:space="preserve"><tspan id="tspan1202-5" x="16.455" y="304.127" style="font-style:normal;font-variant:normal;font-weight:300;font-stretch:normal;font-size:7.58432627px;font-family:'Noto Sans CJK SC';-inkscape-font-specification:'Noto Sans CJK SC Light';fill:#666;stroke-width:.51711321">The V2ray GUI client using Qt</tspan></text><text style="font-style:normal;font-weight:400;font-size:20.68452454px;line-height:1.25;font-family:sans-serif;letter-spacing:0;word-spacing:0;fill:#b3b3b3;fill-opacity:1;stroke:none;stroke-width:.51711321" id="text1204-7-7" x="23.027" y="314.992" xml:space="preserve"><tspan id="tspan1202-5-8" x="23.027" y="314.992" style="font-style:normal;font-variant:normal;font-weight:100;font-stretch:normal;font-size:7.58432627px;font-family:'Noto Sans CJK SC';-inkscape-font-specification:'Noto Sans CJK SC Thin';fill:#b3b3b3;stroke-width:.51711321">Windows / Linux / macOS</tspan></text><g id="g963" transform="matrix(2.3388721,0,0,2.3388721,-132.92101,-303.99427)"><rect id="rect4910-1-9" width="15.312" height="15.313" x="77.233" y="227.81" ry=".729" style="fill:url(#linearGradient910);fill-opacity:1;stroke:none;stroke-width:.30061451;stroke-miterlimit:4;stroke-dasharray:none;stroke-opacity:1"/><rect id="rect4910-2-2-3" width="15.312" height="14.265" x="77.233" y="228.334" ry=".723" style="fill:url(#linearGradient883);fill-opacity:1;stroke:none;stroke-width:.11887714;stroke-miterlimit:4;stroke-dasharray:none;stroke-opacity:1"/><path id="path1020-6" d="m 79.575775,232.41128 2.548685,2.55917 1.415936,0.56615 6.796493,6.82436 2.181544,0.003 -0.003,-7.76179 -2.461662,-2.47482 -4.814184,-1.42176 -5.09737,0.85304 z" clip-path="none" style="opacity:.65;fill:url(#linearGradient1028-3);fill-opacity:1;stroke:none;stroke-width:.28376782px;stroke-linecap:butt;stroke-linejoin:miter;stroke-opacity:1"/><g id="g889" transform="matrix(1.0703139,0,0,1.0747072,78.159839,-76.82709)"><path id="path879-7-0" d="m 4.9266835,288.67208 c 0,0 -0.3728772,0.72708 -0.5817291,0.90212 -0.1467587,0.12299 -0.5403878,0.19489 -0.5403878,0.19489 l 0.7707172,0.2259 1.6743163,-0.39422 c 0,0 -0.7913874,-1.07043 -1.3229166,-0.92869 z" style="fill:#27b181;fill-opacity:1;stroke:none;stroke-width:.02480469px;stroke-linecap:butt;stroke-linejoin:miter;stroke-opacity:1"/><path style="fill:#1cd28e;fill-opacity:1;stroke:none;stroke-width:.08956835px;stroke-linecap:butt;stroke-linejoin:miter;stroke-opacity:1" id="path4715-0-6" d="m 4.1744977,288.92304 c 0,0 1.1173813,-2.75102 3.3019109,-0.59828 2.1845217,2.15274 3.6949274,5.47345 3.6949274,5.47345 0,0 -2.9944654,-4.26031 -6.9968383,-4.87517 z"/><path style="fill:url(#linearGradient953-5);fill-opacity:1;stroke:none;stroke-width:.08956835px;stroke-linecap:butt;stroke-linejoin:miter;stroke-opacity:1" id="path4715-6-93-2" d="m 2.2426889,288.4487 c 0,0 -0.1508518,-2.94653 2.7747518,-1.81527 2.9256022,1.13127 6.6242253,4.28351 6.6242253,4.28351 0,0 -4.8112308,-3.07932 -9.3989771,-2.46824 z"/><path style="fill:url(#linearGradient955-6);fill-opacity:1;stroke:none;stroke-width:.08956835px;stroke-linecap:butt;stroke-linejoin:miter;stroke-opacity:1" id="path4715-6-9-6-6" d="m 1.3229167,287.74194 c 0,0 -1.322916666666666,-2.64583 1.9849644,-2.35592 3.1595803,0.27691 7.8046189,2.09134 7.8046189,2.09134 0,0 -5.6043102,-1.52438 -9.7895833,0.26458 z"/></g><path id="path966-1" d="m 79.57703,239.23312 2.831873,3.12785 h 7.92924 l -6.796492,-6.82437 -1.241908,-0.33859 0.9744,0.97838 v 2.7557 l -0.701746,0.70463 -0.711696,0.41257 h -1.1343 l -0.833445,-0.83686 z" style="opacity:.75;fill:url(#linearGradient984-1);fill-opacity:1;stroke:none;stroke-width:.28376782px;stroke-linecap:butt;stroke-linejoin:miter;stroke-opacity:1"/><g id="g4906-0-8" transform="matrix(0.28077666,0,0,0.27661773,56.412455,228.61984)"><path style="fill:#fff;fill-opacity:1;stroke:none;stroke-width:1.37232864;stroke-miterlimit:4;stroke-dasharray:none;stroke-opacity:1" id="rect4871-6-7" d="m 88.130575,21.09953 c -3.676948,0 -6.637387,3.445469 -6.637387,7.725603 v 5.832396 c 0,4.280138 2.960439,7.726498 6.637387,7.726498 h 2.86259 c 3.676954,0 6.637391,-3.44636 6.637391,-7.726498 v -5.832396 c 0,-4.280134 -2.960437,-7.725603 -6.637391,-7.725603 z m 0.605754,3.016265 h 1.642152 c 2.108144,0 3.805171,1.877318 3.805171,4.20901 v 6.975112 c 0,2.331691 -1.697027,4.209009 -3.805171,4.209009 h -1.642152 c -2.108142,0 -3.805174,-1.877318 -3.805174,-4.209009 v -6.975112 c 0,-2.331692 1.697032,-4.20901 3.805174,-4.20901 z"/><rect style="fill:#3bdc66;fill-opacity:1;stroke:none;stroke-width:1.4067868;stroke-miterlimit:4;stroke-dasharray:none;stroke-opacity:1" id="rect4892-2-9" width="5.112" height="3.842" x="82.512" y="-58.41" rx="0" ry="0" transform="matrix(0.54136549,0.84078737,-0.85710765,0.51513734,0,0)"/></g><rect id="rect968-2" width="2.601" height="4.237" x="80.268" y="235.294" ry="1.086" style="opacity:.5;fill:url(#linearGradient976-2);fill-opacity:1;stroke:none;stroke-width:.85130346;stroke-miterlimit:4;stroke-dasharray:none;stroke-opacity:1"/><text id="text877" x="84.891" y="238.319" transform="scale(0.99392474,1.0061124)" xml:space="preserve" style="font-style:normal;font-weight:400;font-size:2.44444966px;line-height:1.25;font-family:sans-serif;letter-spacing:0;word-spacing:0;fill:#fff;fill-opacity:1;stroke:none;stroke-width:.06111126"><tspan style="fill:#fff;fill-opacity:1;stroke-width:.06111126" id="tspan875" x="84.891" y="238.319">v2ray</tspan></text></g></g></svg>